<svg width="86" height="77" viewBox="0 0 86 77" fill="none" xmlns="http://www.w3.org/2000/svg">
<path fill-rule="evenodd" clip-rule="evenodd" d="M62.0618 26.6669C68.6423 24.4648 73.7962 24.3658 76.0292 26.8528C76.4105 28.5237 76.0254 30.6588 74.9561 33.1157C73.4982 36.4653 70.7816 40.3809 67.0789 44.4603C66.0592 43.0976 64.8853 41.6898 63.5732 40.2588C63.5781 38.0078 63.194 35.7177 62.3785 33.4796C61.8727 32.0915 61.2271 30.7948 60.4632 29.5997C54.2504 31.9173 46.9467 35.958 39.6919 41.3535C39.0954 41.7971 38.5076 42.2437 37.9289 42.6927C38.9197 43.4469 39.9404 44.194 40.9887 44.9308C46.7119 48.9535 52.4732 52.1186 57.6855 54.2594C61.3483 50.6549 63.4816 45.7172 63.5704 40.5521C66.344 43.5971 68.4807 46.5277 69.8294 49.1292C70.7213 50.8495 71.2662 52.4214 71.4255 53.7841C71.5848 55.1461 71.3584 56.2925 70.7162 57.1732L70.7639 57.208C70.5922 57.2917 70.4123 57.3681 70.2244 57.4372L70.2374 57.4376C70.2082 57.4466 70.1788 57.4555 70.1493 57.4642C68.6689 57.9872 66.7062 58.0668 64.388 57.7401C57.5515 56.9182 48.009 52.828 38.6344 46.2389C37.7135 45.5916 36.8155 44.9352 35.9421 44.2719C32.9524 46.7073 30.2361 49.1935 27.8518 51.6458C32.8592 58.6795 42.1166 61.8116 50.6229 58.7122C51.9401 58.2323 53.1749 57.6264 54.3188 56.913C62.2968 60.0373 68.6364 60.4438 70.7838 57.3839C70.8088 57.3482 70.8332 57.3122 70.857 57.2759L70.8778 57.291C71.558 56.3581 71.7874 55.1567 71.6242 53.7609C71.4611 52.3659 70.9054 50.7701 70.0069 49.0371C69.286 47.6466 68.3428 46.1647 67.2006 44.6237C70.9248 40.525 73.6662 36.5804 75.1394 33.1955C76.6165 29.8019 76.8318 26.938 75.4317 25.0554C75.1066 24.6182 74.7079 24.2521 74.2419 23.9537C71.2231 21.7973 64.9444 22.6229 57.3074 25.8158C52.0643 20.937 44.3367 19.1039 37.1459 21.7239C32.0728 23.5723 28.2211 27.2895 26.0849 31.8146C28.7748 34.887 32.1244 38.0755 35.9901 41.1775C37.0177 40.3455 38.0792 39.5212 39.1721 38.7084C47.286 32.674 55.5082 28.4785 62.0618 26.6669ZM24.747 70.1529C29.4922 69.6891 35.6037 67.7708 41.3391 64.6869L41.4338 64.863C35.6799 67.9569 29.5429 69.8851 24.7664 70.3519C22.3793 70.5852 20.3228 70.4545 18.822 69.9144C17.6412 69.4895 16.7966 68.8073 16.4148 67.8466C14.2918 63.8624 18.1562 56.2058 25.8217 48.0414C25.6683 47.6864 25.5243 47.3247 25.3902 46.9566C24.1419 43.5306 23.9045 39.9828 24.5256 36.6398C17.7569 29.5103 14.5231 22.8824 16.866 19.544C17.0826 19.2353 17.3419 18.9619 17.6413 18.723C17.678 18.6666 17.7162 18.6112 17.756 18.5567C18.9837 16.8729 21.489 16.3198 24.783 16.7044C28.0848 17.0899 32.2157 18.4206 36.7465 20.5554L36.6612 20.7363C32.1411 18.6065 28.0321 17.2851 24.7598 16.903C21.6222 16.5367 19.2873 17.0371 18.0755 18.4733C17.9189 18.9201 17.8218 19.3995 17.7821 19.9083C17.6232 21.1466 17.8892 22.6143 18.533 24.247C20.5011 29.5886 26.1189 36.4209 34.0484 42.7928C27.2635 48.5937 22.172 54.6459 19.6042 59.7078C17.6121 63.1052 16.6508 66.11 16.9462 68.3952C17.3724 68.9759 18.0321 69.4176 18.8897 69.7262C20.3506 70.2519 22.3733 70.3848 24.747 70.1529Z" fill="white"/>
</svg>
