<svg width="87" height="78" viewBox="0 0 87 78" fill="none" xmlns="http://www.w3.org/2000/svg">
<path fill-rule="evenodd" clip-rule="evenodd" d="M62.4843 27.0138C69.0648 24.8117 74.2187 24.7127 76.4517 27.1998C76.833 28.8706 76.4479 31.0057 75.3785 33.4627C73.9207 36.8122 71.2041 40.7278 67.5014 44.8072C66.4817 43.4445 65.3078 42.0367 63.9957 40.6057C64.0005 38.3547 63.6165 36.0646 62.801 33.8265C62.2952 32.4384 61.6496 31.1418 60.8857 29.9467C54.6729 32.2642 47.3692 36.305 40.1144 41.7005C39.5179 42.1441 38.9301 42.5906 38.3513 43.0396C39.3422 43.7939 40.3629 44.5409 41.4112 45.2777C47.1344 49.3004 52.8957 52.4656 58.108 54.6064C61.7708 51.0018 63.9041 46.0642 63.9928 40.8991C66.7665 43.944 68.9031 46.8746 70.2518 49.4761C71.1438 51.1965 71.6887 52.7683 71.848 54.131C72.0073 55.493 71.7809 56.6394 71.1386 57.5201L71.1864 57.5549C71.0147 57.6387 70.8348 57.715 70.6469 57.7841L70.6599 57.7845C70.6306 57.7935 70.6013 57.8024 70.5718 57.8112C69.0914 58.3341 67.1287 58.4137 64.8105 58.087C57.974 57.2651 48.4315 53.1749 39.0569 46.5858C38.136 45.9385 37.238 45.2821 36.3646 44.6189C33.3749 47.0542 30.6586 49.5404 28.2743 51.9928C33.2817 59.0264 42.5391 62.1585 51.0453 59.0592C52.3626 58.5792 53.5974 57.9733 54.7413 57.26C62.7193 60.3842 69.0589 60.7907 71.2063 57.7308C71.2313 57.6952 71.2557 57.6592 71.2794 57.6228L71.3002 57.638C71.9805 56.705 72.2099 55.5036 72.0467 54.1078C71.8836 52.7128 71.3278 51.117 70.4294 49.384C69.7085 47.9935 68.7653 46.5117 67.6231 44.9706C71.3473 40.8719 74.0887 36.9273 75.5619 33.5425C77.039 30.1488 77.2543 27.285 75.8542 25.4023C75.5291 24.9652 75.1304 24.599 74.6644 24.3006C71.6456 22.1442 65.3669 22.9698 57.7299 26.1627C52.4868 21.284 44.7592 19.4508 37.5683 22.0709C32.4953 23.9193 28.6436 27.6364 26.5074 32.1615C29.1973 35.2339 32.5469 38.4224 36.4125 41.5244C37.4401 40.6924 38.5017 39.8681 39.5946 39.0553C47.7085 33.0209 55.9306 28.8255 62.4843 27.0138ZM25.1695 70.4998C29.9147 70.036 36.0262 68.1177 41.7616 65.0338L41.8563 65.21C36.1023 68.3038 29.9654 70.232 25.1889 70.6988C22.8018 70.9321 20.7453 70.8014 19.2445 70.2613C18.0637 69.8365 17.2191 69.1542 16.8373 68.1935C14.7142 64.2094 18.5787 56.5527 26.2442 48.3883C26.0908 48.0333 25.9468 47.6716 25.8127 47.3035C24.5644 43.8775 24.327 40.3297 24.9481 36.9868C18.1794 29.8572 14.9456 23.2293 17.2885 19.8909C17.5051 19.5822 17.7644 19.3088 18.0638 19.0699C18.1005 19.0136 18.1387 18.9581 18.1785 18.9036C19.4062 17.2199 21.9114 16.6668 25.2055 17.0513C28.5073 17.4368 32.6382 18.7675 37.169 20.9023L37.0837 21.0832C32.5636 18.9534 28.4546 17.632 25.1823 17.25C22.0447 16.8837 19.7098 17.384 18.498 18.8203C18.3413 19.267 18.2443 19.7465 18.2046 20.2553C18.0457 21.4935 18.3117 22.9612 18.9555 24.594C20.9236 29.9355 26.5414 36.7678 34.4709 43.1397C27.686 48.9406 22.5945 54.9928 20.0267 60.0548C18.0345 63.4522 17.0733 66.4569 17.3687 68.7421C17.7949 69.3229 18.4545 69.7646 19.3122 70.0732C20.7731 70.5988 22.7957 70.7318 25.1695 70.4998Z" fill="black"/>
</svg>
