<svg width="27" height="32" viewBox="0 0 27 32" fill="none" xmlns="http://www.w3.org/2000/svg">
<rect x="0.572464" width="25.8119" height="32" fill="#261F1F"/>
<mask id="mask0_2111_102" style="mask-type:alpha" maskUnits="userSpaceOnUse" x="1" y="1" width="25" height="30">
<path fill-rule="evenodd" clip-rule="evenodd" d="M22.2109 16.0001C28.0104 11.571 25.7331 1.17969 17.368 1.17969H1.52394V16.0001V30.8205H17.368C25.7331 30.8205 28.0104 20.4292 22.2109 16.0001Z" fill="white"/>
</mask>
<g mask="url(#mask0_2111_102)">
<path d="M22.2109 16L21.4373 14.987L20.111 16L21.4373 17.0128L22.2109 16ZM1.52397 1.17953V-0.0949707H0.249466V1.17953H1.52397ZM1.52397 30.8204H0.249466V32.0949H1.52397V30.8204ZM17.368 2.45403C20.9198 2.45403 23.1227 4.61248 23.8747 7.2752C24.6424 9.99384 23.8664 13.132 21.4373 14.987L22.9844 17.0128C26.3548 14.4389 27.3399 10.1667 26.3277 6.58243C25.2996 2.94224 22.1813 -0.0949707 17.368 -0.0949707V2.45403ZM1.52397 2.45403H17.368V-0.0949707H1.52397V2.45403ZM2.79847 16V1.17953H0.249466V16H2.79847ZM0.249466 16V30.8204H2.79847V16H0.249466ZM1.52397 32.0949H17.368V29.5459H1.52397V32.0949ZM17.368 32.0949C22.1813 32.0949 25.2996 29.0576 26.3277 25.4175C27.3399 21.8332 26.3548 17.561 22.9844 14.987L21.4373 17.0128C23.8664 18.868 24.6424 22.006 23.8747 24.7247C23.1227 27.3874 20.9198 29.5459 17.368 29.5459V32.0949Z" fill="white"/>
<path d="M1.52394 1.17969V30.8205H4.87528V10.5246L12.4771 30.8205H15.8284V1.17969H12.4771V21.6946L4.87528 1.17969H1.52394Z" fill="#5CE1E6"/>
</g>
</svg>
