<svg width="359" height="77" viewBox="0 0 359 77" fill="none" xmlns="http://www.w3.org/2000/svg">
<path d="M98.5134 33.2333V36.6233H92.9334V54.1733H88.7334V36.6233H83.1534V33.2333H98.5134ZM117.028 45.5033C117.028 46.1033 116.988 46.6433 116.908 47.1233H104.758C104.858 48.3233 105.278 49.2633 106.018 49.9433C106.758 50.6233 107.668 50.9633 108.748 50.9633C110.308 50.9633 111.418 50.2933 112.078 48.9533H116.608C116.128 50.5533 115.208 51.8733 113.848 52.9133C112.488 53.9333 110.818 54.4433 108.838 54.4433C107.238 54.4433 105.798 54.0933 104.518 53.3933C103.258 52.6733 102.268 51.6633 101.548 50.3633C100.848 49.0633 100.498 47.5633 100.498 45.8633C100.498 44.1433 100.848 42.6333 101.548 41.3333C102.248 40.0333 103.228 39.0333 104.488 38.3333C105.748 37.6333 107.198 37.2833 108.838 37.2833C110.418 37.2833 111.828 37.6233 113.068 38.3033C114.328 38.9833 115.298 39.9533 115.978 41.2133C116.678 42.4533 117.028 43.8833 117.028 45.5033ZM112.678 44.3033C112.658 43.2233 112.268 42.3633 111.508 41.7233C110.748 41.0633 109.818 40.7333 108.718 40.7333C107.678 40.7333 106.798 41.0533 106.078 41.6933C105.378 42.3133 104.948 43.1833 104.788 44.3033H112.678ZM124.293 31.9733V54.1733H120.093V31.9733H124.293ZM143.893 45.5033C143.893 46.1033 143.853 46.6433 143.773 47.1233H131.623C131.723 48.3233 132.143 49.2633 132.883 49.9433C133.623 50.6233 134.533 50.9633 135.613 50.9633C137.173 50.9633 138.283 50.2933 138.943 48.9533H143.473C142.993 50.5533 142.073 51.8733 140.713 52.9133C139.353 53.9333 137.683 54.4433 135.703 54.4433C134.103 54.4433 132.663 54.0933 131.383 53.3933C130.123 52.6733 129.133 51.6633 128.413 50.3633C127.713 49.0633 127.363 47.5633 127.363 45.8633C127.363 44.1433 127.713 42.6333 128.413 41.3333C129.113 40.0333 130.093 39.0333 131.353 38.3333C132.613 37.6333 134.063 37.2833 135.703 37.2833C137.283 37.2833 138.693 37.6233 139.933 38.3033C141.193 38.9833 142.163 39.9533 142.843 41.2133C143.543 42.4533 143.893 43.8833 143.893 45.5033ZM139.543 44.3033C139.523 43.2233 139.133 42.3633 138.373 41.7233C137.613 41.0633 136.683 40.7333 135.583 40.7333C134.543 40.7333 133.663 41.0533 132.943 41.6933C132.243 42.3133 131.813 43.1833 131.653 44.3033H139.543ZM145.879 45.8633C145.879 44.1433 146.229 42.6433 146.929 41.3633C147.629 40.0633 148.599 39.0633 149.839 38.3633C151.079 37.6433 152.499 37.2833 154.099 37.2833C156.159 37.2833 157.859 37.8033 159.199 38.8433C160.559 39.8633 161.469 41.3033 161.929 43.1633H157.399C157.159 42.4433 156.749 41.8833 156.169 41.4833C155.609 41.0633 154.909 40.8533 154.069 40.8533C152.869 40.8533 151.919 41.2933 151.219 42.1733C150.519 43.0333 150.169 44.2633 150.169 45.8633C150.169 47.4433 150.519 48.6733 151.219 49.5533C151.919 50.4133 152.869 50.8433 154.069 50.8433C155.769 50.8433 156.879 50.0833 157.399 48.5633H161.929C161.469 50.3633 160.559 51.7933 159.199 52.8533C157.839 53.9133 156.139 54.4433 154.099 54.4433C152.499 54.4433 151.079 54.0933 149.839 53.3933C148.599 52.6733 147.629 51.6733 146.929 50.3933C146.229 49.0933 145.879 47.5833 145.879 45.8633ZM172.386 54.4433C170.786 54.4433 169.346 54.0933 168.066 53.3933C166.786 52.6733 165.776 51.6633 165.036 50.3633C164.316 49.0633 163.956 47.5633 163.956 45.8633C163.956 44.1633 164.326 42.6633 165.066 41.3633C165.826 40.0633 166.856 39.0633 168.156 38.3633C169.456 37.6433 170.906 37.2833 172.506 37.2833C174.106 37.2833 175.556 37.6433 176.856 38.3633C178.156 39.0633 179.176 40.0633 179.916 41.3633C180.676 42.6633 181.056 44.1633 181.056 45.8633C181.056 47.5633 180.666 49.0633 179.886 50.3633C179.126 51.6633 178.086 52.6733 176.766 53.3933C175.466 54.0933 174.006 54.4433 172.386 54.4433ZM172.386 50.7833C173.146 50.7833 173.856 50.6033 174.516 50.2433C175.196 49.8633 175.736 49.3033 176.136 48.5633C176.536 47.8233 176.736 46.9233 176.736 45.8633C176.736 44.2833 176.316 43.0733 175.476 42.2333C174.656 41.3733 173.646 40.9433 172.446 40.9433C171.246 40.9433 170.236 41.3733 169.416 42.2333C168.616 43.0733 168.216 44.2833 168.216 45.8633C168.216 47.4433 168.606 48.6633 169.386 49.5233C170.186 50.3633 171.186 50.7833 172.386 50.7833ZM204.776 37.3133C206.816 37.3133 208.456 37.9433 209.696 39.2033C210.956 40.4433 211.586 42.1833 211.586 44.4233V54.1733H207.386V44.9933C207.386 43.6933 207.056 42.7033 206.396 42.0233C205.736 41.3233 204.836 40.9733 203.696 40.9733C202.556 40.9733 201.646 41.3233 200.966 42.0233C200.306 42.7033 199.976 43.6933 199.976 44.9933V54.1733H195.776V44.9933C195.776 43.6933 195.446 42.7033 194.786 42.0233C194.126 41.3233 193.226 40.9733 192.086 40.9733C190.926 40.9733 190.006 41.3233 189.326 42.0233C188.666 42.7033 188.336 43.6933 188.336 44.9933V54.1733H184.136V37.5533H188.336V39.5633C188.876 38.8633 189.566 38.3133 190.406 37.9133C191.266 37.5133 192.206 37.3133 193.226 37.3133C194.526 37.3133 195.686 37.5933 196.706 38.1533C197.726 38.6933 198.516 39.4733 199.076 40.4933C199.616 39.5333 200.396 38.7633 201.416 38.1833C202.456 37.6033 203.576 37.3133 204.776 37.3133Z" fill="white"/>
<path d="M219.772 36.6233V41.8733H226.822V45.2033H219.772V50.7533H227.722V54.1733H215.572V33.2033H227.722V36.6233H219.772ZM240.719 54.1733L237.299 49.0133L234.269 54.1733H229.769L235.199 45.8333L229.709 37.5533H234.449L237.839 42.6833L240.899 37.5533H245.399L239.939 45.8333L245.459 54.1733H240.719ZM251.94 39.9533C252.48 39.1933 253.22 38.5633 254.16 38.0633C255.12 37.5433 256.21 37.2833 257.43 37.2833C258.85 37.2833 260.13 37.6333 261.27 38.3333C262.43 39.0333 263.34 40.0333 264 41.3333C264.68 42.6133 265.02 44.1033 265.02 45.8033C265.02 47.5033 264.68 49.0133 264 50.3333C263.34 51.6333 262.43 52.6433 261.27 53.3633C260.13 54.0833 258.85 54.4433 257.43 54.4433C256.21 54.4433 255.13 54.1933 254.19 53.6933C253.27 53.1933 252.52 52.5633 251.94 51.8033V62.0933H247.74V37.5533H251.94V39.9533ZM260.73 45.8033C260.73 44.8033 260.52 43.9433 260.1 43.2233C259.7 42.4833 259.16 41.9233 258.48 41.5433C257.82 41.1633 257.1 40.9733 256.32 40.9733C255.56 40.9733 254.84 41.1733 254.16 41.5733C253.5 41.9533 252.96 42.5133 252.54 43.2533C252.14 43.9933 251.94 44.8633 251.94 45.8633C251.94 46.8633 252.14 47.7333 252.54 48.4733C252.96 49.2133 253.5 49.7833 254.16 50.1833C254.84 50.5633 255.56 50.7533 256.32 50.7533C257.1 50.7533 257.82 50.5533 258.48 50.1533C259.16 49.7533 259.7 49.1833 260.1 48.4433C260.52 47.7033 260.73 46.8233 260.73 45.8033ZM283.522 45.5033C283.522 46.1033 283.482 46.6433 283.402 47.1233H271.252C271.352 48.3233 271.772 49.2633 272.512 49.9433C273.252 50.6233 274.162 50.9633 275.242 50.9633C276.802 50.9633 277.912 50.2933 278.572 48.9533H283.102C282.622 50.5533 281.702 51.8733 280.342 52.9133C278.982 53.9333 277.312 54.4433 275.332 54.4433C273.732 54.4433 272.292 54.0933 271.012 53.3933C269.752 52.6733 268.762 51.6633 268.042 50.3633C267.342 49.0633 266.992 47.5633 266.992 45.8633C266.992 44.1433 267.342 42.6333 268.042 41.3333C268.742 40.0333 269.722 39.0333 270.982 38.3333C272.242 37.6333 273.692 37.2833 275.332 37.2833C276.912 37.2833 278.322 37.6233 279.562 38.3033C280.822 38.9833 281.792 39.9533 282.472 41.2133C283.172 42.4533 283.522 43.8833 283.522 45.5033ZM279.172 44.3033C279.152 43.2233 278.762 42.3633 278.002 41.7233C277.242 41.0633 276.312 40.7333 275.212 40.7333C274.172 40.7333 273.292 41.0533 272.572 41.6933C271.872 42.3133 271.442 43.1833 271.282 44.3033H279.172ZM290.788 40.1333C291.328 39.2533 292.028 38.5633 292.888 38.0633C293.768 37.5633 294.768 37.3133 295.888 37.3133V41.7233H294.778C293.458 41.7233 292.458 42.0333 291.778 42.6533C291.118 43.2733 290.788 44.3533 290.788 45.8933V54.1733H286.588V37.5533H290.788V40.1333ZM303.606 41.0033V49.0433C303.606 49.6033 303.736 50.0133 303.996 50.2733C304.276 50.5133 304.736 50.6333 305.376 50.6333H307.326V54.1733H304.686C301.146 54.1733 299.376 52.4533 299.376 49.0133V41.0033H297.396V37.5533H299.376V33.4433H303.606V37.5533H307.326V41.0033H303.606ZM316.707 54.4433C315.347 54.4433 314.127 54.2033 313.047 53.7233C311.967 53.2233 311.107 52.5533 310.467 51.7133C309.847 50.8733 309.507 49.9433 309.447 48.9233H313.677C313.757 49.5633 314.067 50.0933 314.607 50.5133C315.167 50.9333 315.857 51.1433 316.677 51.1433C317.477 51.1433 318.097 50.9833 318.537 50.6633C318.997 50.3433 319.227 49.9333 319.227 49.4333C319.227 48.8933 318.947 48.4933 318.387 48.2333C317.847 47.9533 316.977 47.6533 315.777 47.3333C314.537 47.0333 313.517 46.7233 312.717 46.4033C311.937 46.0833 311.257 45.5933 310.677 44.9333C310.117 44.2733 309.837 43.3833 309.837 42.2633C309.837 41.3433 310.097 40.5033 310.617 39.7433C311.157 38.9833 311.917 38.3833 312.897 37.9433C313.897 37.5033 315.067 37.2833 316.407 37.2833C318.387 37.2833 319.967 37.7833 321.147 38.7833C322.327 39.7633 322.977 41.0933 323.097 42.7733H319.077C319.017 42.1133 318.737 41.5933 318.237 41.2133C317.757 40.8133 317.107 40.6133 316.287 40.6133C315.527 40.6133 314.937 40.7533 314.517 41.0333C314.117 41.3133 313.917 41.7033 313.917 42.2033C313.917 42.7633 314.197 43.1933 314.757 43.4933C315.317 43.7733 316.187 44.0633 317.367 44.3633C318.567 44.6633 319.557 44.9733 320.337 45.2933C321.117 45.6133 321.787 46.1133 322.347 46.7933C322.927 47.4533 323.227 48.3333 323.247 49.4333C323.247 50.3933 322.977 51.2533 322.437 52.0133C321.917 52.7733 321.157 53.3733 320.157 53.8133C319.177 54.2333 318.027 54.4433 316.707 54.4433Z" fill="#5CE1E6"/>
<path fill-rule="evenodd" clip-rule="evenodd" d="M62.3018 26.6669C68.8823 24.4648 74.0362 24.3658 76.2692 26.8528C76.6505 28.5237 76.2654 30.6588 75.1961 33.1157C73.7382 36.4653 71.0216 40.3809 67.3189 44.4603C66.2992 43.0976 65.1253 41.6898 63.8132 40.2588C63.818 38.0078 63.434 35.7177 62.6185 33.4796C62.1127 32.0915 61.4671 30.7948 60.7032 29.5997C54.4904 31.9173 47.1867 35.958 39.9319 41.3535C39.3354 41.7971 38.7476 42.2437 38.1688 42.6927C39.1597 43.4469 40.1804 44.194 41.2287 44.9308C46.9519 48.9535 52.7132 52.1186 57.9255 54.2594C61.5883 50.6549 63.7216 45.7172 63.8103 40.5521C66.584 43.5971 68.7206 46.5277 70.0694 49.1292C70.9613 50.8495 71.5062 52.4214 71.6655 53.7841C71.8248 55.1461 71.5984 56.2925 70.9562 57.1732L71.0039 57.208C70.8322 57.2917 70.6523 57.3681 70.4644 57.4372L70.4774 57.4376C70.4481 57.4466 70.4187 57.4555 70.3892 57.4643C68.9088 57.9872 66.9462 58.0667 64.6281 57.7401C57.7916 56.9182 48.249 52.828 38.8744 46.2389C37.9535 45.5916 37.0555 44.9352 36.1821 44.2719C33.1924 46.7073 30.4761 49.1935 28.0918 51.6458C33.0992 58.6795 42.3566 61.8116 50.8628 58.7122C52.1801 58.2323 53.4149 57.6264 54.5588 56.913C62.5368 60.0373 68.8764 60.4438 71.0238 57.3839C71.0488 57.3482 71.0732 57.3122 71.0969 57.2759L71.1178 57.291C71.798 56.3581 72.0274 55.1567 71.8642 53.7609C71.7011 52.3659 71.1454 50.7701 70.2469 49.0371C69.526 47.6466 68.5828 46.1647 67.4406 44.6237C71.1648 40.525 73.9062 36.5804 75.3794 33.1955C76.8565 29.8019 77.0718 26.938 75.6717 25.0554C75.3466 24.6182 74.9479 24.2521 74.4819 23.9537C71.4631 21.7973 65.1844 22.6229 57.5474 25.8158C52.3043 20.937 44.5767 19.1039 37.3859 21.7239C32.3128 23.5723 28.4611 27.2895 26.3249 31.8146C29.0148 34.887 32.3644 38.0755 36.23 41.1775C37.2576 40.3455 38.3192 39.5212 39.4121 38.7084C47.526 32.674 55.7481 28.4786 62.3018 26.6669ZM24.987 70.1528C29.7322 69.6891 35.8437 67.7708 41.5791 64.6869L41.6738 64.863C35.9198 67.9569 29.7829 69.8851 25.0064 70.3519C22.6193 70.5852 20.5628 70.4545 19.062 69.9144C17.8812 69.4895 17.0366 68.8073 16.6548 67.8466C14.5317 63.8625 18.3962 56.2058 26.0617 48.0414C25.9083 47.6864 25.7643 47.3247 25.6302 46.9566C24.3819 43.5306 24.1445 39.9828 24.7656 36.6398C17.9969 29.5103 14.7631 22.8824 17.106 19.544C17.3226 19.2353 17.5819 18.9619 17.8813 18.723C17.918 18.6666 17.9562 18.6112 17.996 18.5567C19.2237 16.8729 21.7289 16.3198 25.023 16.7044C28.3248 17.0899 32.4557 18.4206 36.9865 20.5554L36.9012 20.7363C32.3811 18.6065 28.2721 17.2851 24.9998 16.903C21.8622 16.5367 19.5273 17.0371 18.3155 18.4733C18.1588 18.9201 18.0618 19.3995 18.0221 19.9083C17.8632 21.1465 18.1292 22.6142 18.7729 24.2469C20.741 29.5885 26.3588 36.4209 34.2884 42.7928C27.5034 48.5937 22.412 54.646 19.8441 59.7079C17.852 63.1053 16.8908 66.11 17.1862 68.3952C17.6124 68.9759 18.2721 69.4176 19.1297 69.7262C20.5906 70.2519 22.6132 70.3848 24.987 70.1528Z" fill="white"/>
</svg>
